<svg xmlns="http://www.w3.org/2000/svg" xmlns:xlink="http://www.w3.org/1999/xlink" viewBox="0 0 1165.2 858"><style><![CDATA[.B{opacity:.2}.C{fill:#fff}.D{fill:#6c63ff}.E{fill:none}.F{stroke:#ad7676}.G{stroke-miterlimit:10}.H{stroke-width:2}.I{fill:#47e6b1}.J{fill:#f55f44}.K{fill:#e6e6e6}.L{fill:#f8c198}.M{fill:#4d8af0}]]></style><defs><linearGradient id="A" x1="739.11" x2="739.11" y1="600.75" y2="35" gradientUnits="userSpaceOnUse"><stop stop-color="gray" stop-opacity=".25" offset="0"/><stop stop-color="gray" stop-opacity=".12" offset=".54"/><stop stop-color="gray" stop-opacity=".1" offset="1"/></linearGradient><linearGradient id="B" x1="686.68" x2="686.68" y1="717.39" y2="670.55" xlink:href="#A"/><linearGradient id="C" x1="645.13" x2="645.13" y1="725.98" y2="664.77" xlink:href="#A"/><linearGradient id="D" x1="748.64" x2="748.64" y1="691.12" y2="649.87" xlink:href="#A"/><linearGradient id="E" x1="726.3" x2="726.3" y1="801.01" y2="704.54" xlink:href="#A"/><linearGradient id="F" x1="765.68" x2="765.68" y1="709.46" y2="663.19" xlink:href="#A"/><linearGradient id="G" x1="725" x2="725" y1="858" y2="712.51" xlink:href="#A"/><linearGradient id="H" x1="325.86" x2="325.86" y1="102.02" y2="41.73" xlink:href="#A"/><linearGradient id="I" x1="314.63" x2="314.63" y1="112.46" y2="96.95" xlink:href="#A"/><linearGradient id="J" x1="96.86" x2="96.86" y1="558.16" y2="473.87" xlink:href="#A"/><linearGradient id="K" x1="85.49" x2="85.49" y1="580.32" y2="558.64" xlink:href="#A"/><linearGradient id="L" x1="401.86" x2="401.86" y1="498.21" y2="402" xlink:href="#A"/><linearGradient id="M" x1="390.42" x2="390.42" y1="526.19" y2="501.45" xlink:href="#A"/><linearGradient id="N" x1="281.25" x2="281.25" y1="152.04" y2="80.66" xlink:href="#A"/><linearGradient id="O" x1="269.97" x2="269.97" y1="167.89" y2="149.53" xlink:href="#A"/><linearGradient id="P" x1="35.42" x2="35.42" y1="97.02" y2="46.61" xlink:href="#A"/><linearGradient id="Q" x1="24.26" x2="24.26" y1="102.64" y2="89.68" xlink:href="#A"/><linearGradient id="R" x1="452.42" x2="452.42" y1="84.02" y2="33.61" xlink:href="#A"/><linearGradient id="S" x1="441.26" x2="441.26" y1="89.64" y2="76.68" xlink:href="#A"/><linearGradient id="T" x1="102.82" x2="102.82" y1="287.6" y2="212.78" xlink:href="#A"/><linearGradient id="U" x1="91.51" x2="91.51" y1="305.14" y2="285.9" xlink:href="#A"/><linearGradient id="V" x1="999.82" x2="999.82" y1="89.49" y2="19" xlink:href="#A"/><linearGradient id="W" x1="988.54" x2="988.54" y1="104.92" y2="86.79" xlink:href="#A"/><linearGradient id="X" x1="1136.8" x2="1136.8" y1="98.6" y2="23.78" xlink:href="#A"/><linearGradient id="Y" x1="1125.5" x2="1125.5" y1="116.14" y2="96.9" xlink:href="#A"/><linearGradient id="Z" x1="1070.9" x2="1070.9" y1="285.65" y2="219" xlink:href="#A"/><linearGradient id="a" x1="1059.6" x2="1059.6" y1="299.19" y2="282.05" xlink:href="#A"/><linearGradient id="b" x1="1140.2" x2="1140.2" y1="492.61" y2="419" xlink:href="#A"/><linearGradient id="c" x1="1129" x2="1129" y1="509.55" y2="490.62" xlink:href="#A"/><path id="d" d="M20.56 90.74a.83.83 0 0 0 0 .27.38.38 0 0 0 0 .1.56.56 0 0 0 0-.37zm-.34-1.24a1.63 1.63 0 0 0 0 .44 1.67 1.67 0 0 0 0-.44zm2.57.65v-.1.1z"/><path id="e" d="M25.05 28.7h-.84c11.48.5 22 11.05 22 24s-10.56 23.5-22 24h.84c11.8 0 22.9-10.76 22.9-24s-11.1-24-22.9-24z"/><path id="f" d="M2.5 52.82c0-13.08 11.75-23.72 23.4-24h-.5c-11.8 0-23.9 10.76-23.9 24s12.1 24 23.9 24h.5c-11.64-.3-23.4-10.92-23.4-24z"/><path id="g" d="M126.66 231.2c0 19.7-16.45 35.66-34 35.66s-35.47-16-35.47-35.66 18-35.66 35.47-35.66 34 15.96 34 35.66z"/><path id="h" d="M59.22 231.2c0-19.4 17.45-35.2 34.72-35.65h-.75c-17.52 0-35.47 16-35.47 35.66s18 35.66 35.47 35.66h.75c-17.28-.47-34.72-16.26-34.72-35.67z"/></defs><path transform="translate(-10.88 -19)" d="M1014.54 317.87c0 156.23-130.5 282.87-269.47 282.87s-281.4-126.64-281.4-282.87S606.1 35 745.07 35s269.47 126.65 269.47 282.87z" fill="url(#A)"/><path d="M990.76 298.87c0 148.9-124.4 269.63-256.86 269.63S465.7 447.8 465.7 298.87 601.45 29.24 733.9 29.24 990.76 150 990.76 298.87z" class="D"/><g transform="translate(-10.88 -19)"><path d="M705.6 687.58c0-9.4-8.47-17-18.92-17s-18.92 7.63-18.92 17c0 7.93 6 14.58 14.2 16.48v13.33h9.46v-13.33c8.16-1.9 14.2-8.54 14.2-16.48z" fill="url(#B)"/><path d="M637.46 689.7l-19.16-19.16-.38.38v-.1c-2-4.24-5.4-6.86-7.52-5.85s-2.2 5.28-.17 9.52a16.23 16.23 0 0 0 1.55 2.59l-2 2s49 49 68.14 46.85l3.6-13.36s-16.38.54-44.07-22.88z" fill="url(#C)"/></g><g class="L"><circle cx="675.34" cy="669.16" r="15.76"/><path d="M671.4 681h7.88v15.76h-7.88z"/></g><g fill="#605b38"><rect x="659.58" y="690.84" width="31.52" height="70.93" rx="8"/><path d="M668.83 692.27s-15.16.54-40.78-21.14l-17.73-17.73-7.88 7.88s45.32 45.32 63 43.35z"/></g><ellipse transform="rotate(334.44 569.942 688.849)" cx="617.26" cy="674.37" rx="3.94" ry="7.88" class="L"/><circle cx="748.64" cy="670.49" r="20.63" fill="url(#D)"/><g class="L"><circle cx="748.64" cy="670.49" r="18.65"/><path d="M743.97 684.48h9.33v18.65h-9.33z"/></g><path transform="translate(-10.88 -19)" d="M772.46 713.56h-23.1a7.89 7.89 0 0 0-6.44 3.36c-17.55 2.28-53.66 5.8-57.32-3.36l-1.68 1.26a18.46 18.46 0 0 0-1.23-3.35c-2.32-4.84-6.16-7.83-8.58-6.67s-2.5 6-.2 10.86a17.3 17.3 0 0 0 3 4.42l-1 .77s36.93 15.55 65.6 13.6v58.67a7.91 7.91 0 0 0 7.89 7.89h23.1a7.91 7.91 0 0 0 7.89-7.89v-71.7a7.91 7.91 0 0 0-7.93-7.88z" fill="url(#E)"/><g fill="#53ad9b"><rect x="729.98" y="696.14" width="37.3" height="83.93" rx="8"/><path d="M740.47 698.05s-59.45 9.74-64.1-1.92l-9.33 7s44.3 18.65 72.27 11.66 1.17-16.74 1.17-16.74z"/></g><ellipse transform="rotate(334.44 632.914 729.624)" cx="680.25" cy="715.14" rx="4.66" ry="9.33" class="L"/><path transform="translate(-10.88 -19)" d="M741.3 669.35a2.36 2.36 0 0 1 2.34 1.37c1.92-4.2 6.46-6.77 11-7.36s9.2.5 13.58 2c5.6 1.9 11.06 4.55 15.27 8.7s7 10 6.5 15.87c-.38 4.33-2.47 8.3-4.53 12.12-1.27 2.37-2.65 4.83-4.92 6.26-4.74 3-11.46-.17-14-5.16-.84-1.65-1.36-3.45-2.3-5-2.8-4.84-8.63-6.82-13.64-9.33-8.76-4.45-9.45-10.57-9.32-19.46z" fill="url(#F)"/><path fill="url(#G)" d="M640.8 712.5h168.4V858H640.8z"/><path fill="#f5f5f5" d="M645.8 712.5h159.6v137.92H645.8z"/><path d="M803.4 712.5l6.66-126.03M649.73 712.5l-9-126.03" class="E F G H"/><path d="M732.82 669.55A18.64 18.64 0 0 1 750.05 651c-.47 0-.94-.07-1.42-.07a18.65 18.65 0 0 0 0 37.3l1.42-.07a18.64 18.64 0 0 1-17.23-18.61zm-70.95-1.9a18.64 18.64 0 0 1 17.25-18.58c-.47 0-.94-.07-1.42-.07a18.65 18.65 0 0 0 0 37.3l1.42-.07a18.64 18.64 0 0 1-17.25-18.58z" class="B C"/><path d="M672.23 682a18.87 18.87 0 0 1 2.82 2.3c3.35 4.17-3 10.63-.62 15.43 1.05 2.12 3.55 3.2 4.67 5.28 2.13 3.95-1.44 9.73 1.65 13 .83.87 2 1.38 2.65 2.4 1.25 2-.5 4.66-.22 7 .35 3 3.63 4.6 6.46 5.66 2.4.9 5.57 1.62 7.2-.37.8-1 .94-2.3 1.68-3.32 1.38-1.9 4.16-1.9 6.2-3.06 3.15-1.8 3.92-6 3.92-9.6s-.36-7.55 1.62-10.6c2.24-3.46 6.9-4.75 9.13-8.2 3.4-5.26-.35-12.6 2.07-18.38.84-2 2.38-3.7 2.88-5.8.83-3.47-1.4-7-4-9.33s-5.87-4.16-8.08-7c-1.55-2-2.56-4.35-4.4-6.06-4.44-4.14-11.5-2.66-17.43-4-5.5-1.2-10.55-4.95-16.14-4.32-4.9.55-8.7 4.3-12.12 7.86a6.29 6.29 0 0 0-1.9 2.92c-1 4.83 3.7 9.8 5.75 13.34 2.63 4.74 1.82 11.2 6.2 14.86z" fill="#fccc63"/><path d="M662.12 654.8c3.4-3.55 7.23-7.3 12.12-7.86 5.58-.63 10.65 3.13 16.14 4.32 5.93 1.3 13-.2 17.43 4 1.83 1.7 2.84 4.1 4.4 6.06 2.2 2.8 5.43 4.58 8.08 7a12.9 12.9 0 0 1 3.95 5.88c0-.1.07-.22.1-.33.83-3.47-1.4-7-4.05-9.33s-5.87-4.16-8.08-7c-1.55-2-2.56-4.35-4.4-6.06-4.44-4.14-11.5-2.66-17.43-4-5.5-1.2-10.55-4.95-16.14-4.32-4.9.55-8.7 4.3-12.12 7.86a6.29 6.29 0 0 0-1.9 2.92 7.58 7.58 0 0 0 .13 3.32 7.35 7.35 0 0 1 1.77-2.46zm21.4 69.64a9.29 9.29 0 0 0-.34 3 4.32 4.32 0 0 0 .27 1.08c.32-1.42.67-2.85.07-4.08zm-3.83-13.84a18.28 18.28 0 0 0-.12 5 18.73 18.73 0 0 0 .12-5zm41.12-17.23a46.51 46.51 0 0 0-.17-6.52 46.24 46.24 0 0 0 .17 6.52zm-12.2 24.46v-1.6c.01.54 0 1.08 0 1.6zm-32.82-28.4c-.72 3.15-2.55 6.6-1.65 9.55.7-3.3 2.62-6.76 1.65-9.55z" class="B C"/><path d="M731.82 651.32a2.22 2.22 0 0 1 2.2 1.29c1.8-4 6.08-6.38 10.4-6.94s8.68.48 12.8 1.9c5.27 1.8 10.42 4.3 14.4 8.2s6.62 9.4 6.13 15c-.36 4.08-2.33 7.82-4.27 11.42-1.2 2.23-2.5 4.55-4.64 5.9-4.47 2.8-10.8-.16-13.2-4.86-.8-1.55-1.28-3.25-2.16-4.75-2.65-4.56-8.14-6.42-12.85-8.8-8.27-4.2-8.92-9.96-8.8-18.35z" fill="#263238"/><path d="M731.82 653.22a2.22 2.22 0 0 1 2.2 1.29c1.8-4 6.08-6.38 10.4-6.94s8.68.48 12.8 1.9c5.27 1.8 10.42 4.3 14.4 8.2a20 20 0 0 1 6.15 12.66c.33-5.4-2.28-10.74-6.15-14.55s-9.12-6.4-14.4-8.2c-4.12-1.4-8.5-2.45-12.8-1.9s-8.6 3-10.4 6.94a2.22 2.22 0 0 0-2.2-1.29v2.36c-.01-.16-.01-.32 0-.47z" class="B C"/><path d="M692.76 577.96h59.6v20.8h-59.6z" class="D"/><path d="M733.9 28.3l-9.47.23c128.86 5.56 247.4 124 247.4 269.4s-118.56 263.84-247.4 269.4c3.16.14 6.32.23 9.47.23 132.45 0 256.86-120.72 256.86-269.63S866.36 28.3 733.9 28.3z" class="B"/><path d="M480.83 298.87c0-146.78 131.9-266.17 262.53-269.55-1.9 0-3.78-.08-5.67-.08-132.45 0-268.2 120.76-268.2 269.63S605.24 568.5 737.7 568.5l5.67-.08C612.74 565 480.83 445.66 480.83 298.87z" class="B C"/><path d="M639.78 530.66h171.24v55.82H639.78z" class="D"/><path d="M639.77 48.88s-203.4 232.5 0 500l67.17-.23s-185.43-221-8.5-516.55l-33.1 7.55zm176.92-3.55s203.4 236 0 503.54l-67.17-.23s185.43-222.88 8.5-518.44l33.1 6.6z" class="B C"/><path transform="translate(-10.88 -19)" d="M356 71.87c0 16.65-14.28 30.13-29.48 30.13s-30.8-13.5-30.8-30.14 15.58-30.14 30.8-30.14S356 55.23 356 71.87z" fill="url(#H)"/><path d="M343.7 52.87c0 15.87-13.6 28.73-28.1 28.73s-29.35-12.86-29.35-28.73 14.86-28.73 29.35-28.73S343.7 37 343.7 52.87z" class="D"/><path fill="url(#I)" d="M305.42 96.95h18.43v15.5h-18.43z"/><path d="M305.97 96.95h17.46v14.7h-17.46z" class="D"/><path d="M323.2 96.95l.73-13.43M306.4 96.95l-1-13.43" class="E F G H"/><path d="M310.12 98.22a1 1 0 0 0 0 .32.45.45 0 0 0 0 .11.65.65 0 0 0 0-.43zm-.45-1.47a1.9 1.9 0 0 0 0 .53 1.94 1.94 0 0 0 0-.53zm3.17.77v-.17.17z" class="B C"/><path d="M311.1 82.62h6.52v2.22h-6.52z" class="D"/><path d="M315.6 24h-1c14.1.6 27.07 13.22 27.07 28.7s-13 28.12-27.07 28.7h1c14.5 0 28.1-12.86 28.1-28.73S330.12 24 315.6 24z" class="B"/><path d="M287.92 52.87c0-15.64 14.43-28.36 28.72-28.72h-.62c-14.5 0-29.35 12.86-29.35 28.73s14.85 28.73 29.35 28.73h.62c-14.3-.37-28.72-13.1-28.72-28.74z" class="B C"/><path d="M305.3 77.57h18.74v5.95H305.3z" class="D"/><path d="M305.3 26.23s-22.26 24.77 0 53.28h7.35s-20.3-23.55-.93-55l-3.62.8zm19.35-.37s22.26 25.15 0 53.66h-7.35s20.3-23.75.93-55.25l3.62.7z" class="B C"/><path transform="translate(-10.88 -19)" d="M139 516c0 23.28-20 42.15-41.22 42.15s-43-18.87-43-42.15 21.8-42.15 43-42.15S139 492.74 139 516z" fill="url(#J)"/><path d="M126.12 497c0 22.2-19 40.17-39.3 40.17s-41-18-41-40.17 20.77-40.17 41-40.17 39.3 18 39.3 40.17z" class="M"/><path fill="url(#K)" d="M72.6 558.64h25.76v21.68H72.6z"/><path d="M73.37 558.64h24.4v20.55h-24.4z" class="D"/><path d="M97.5 558.64l1.02-18.77m-24.53 18.77l-1.38-18.77" class="E F G H"/><path d="M79.12 560.42a1.35 1.35 0 0 0-.05.45.63.63 0 0 0 0 .16.91.91 0 0 0 .05-.61zm-.56-2.06a2.65 2.65 0 0 0 0 .74 2.72 2.72 0 0 0 0-.74zm4.42 1.08v-.24.24z" class="B C"/><path d="M80.56 538.6h9.12v3.1h-9.12z" class="M"/><path d="M86.85 456.7H85.4c19.7.83 37.85 18.48 37.85 40.14S105.12 536.18 85.4 537h1.45c20.26 0 39.3-18 39.3-40.17s-19.02-40.13-39.3-40.13z" class="B"/><path d="M48.12 497c0-21.87 20.18-39.66 40.16-40.16h-.87c-20.26 0-41 18-41 40.17s20.77 40.17 41 40.17h.87c-19.96-.5-40.16-18.3-40.16-40.18z" class="B C"/><path d="M72.45 531.55h26.2v8.32h-26.2z" class="M"/><path d="M72.45 459.76s-31.12 34.64 0 74.5h10.28s-28.37-32.93-1.3-77l-5.07 1.13zm27.07-.52s31.12 35.17 0 75H89.24S117.6 501 90.54 457l5.07 1z" class="B C"/><path transform="translate(-10.88 -19)" d="M450 450.1c0 26.57-22.8 48.1-47.05 48.1s-49.13-21.54-49.13-48.1S378.64 402 402.9 402s47.1 21.54 47.1 48.1z" fill="url(#L)"/><path d="M436.82 431.1c0 25.33-21.7 45.9-44.84 45.9s-46.86-20.57-46.86-45.9 23.7-45.85 46.83-45.85 44.87 20.53 44.87 45.85z" class="I"/><path fill="url(#M)" d="M375.72 501.45h29.4v24.74h-29.4z"/><path fill="#f2f2f2" d="M376.6 501.45h27.87v23.45H376.6z"/><path d="M404.1 501.45l1.16-21.44m-28 21.44L375.7 480" class="E F G H"/><path d="M383.18 503.47a1.54 1.54 0 0 0-.06.51.72.72 0 0 0 0 .18 1 1 0 0 0 .06-.69zm-.67-2.35a3 3 0 0 0 0 .85 3.1 3.1 0 0 0 0-.85zm5.05 1.23v-.27.27z" class="B C"/><path d="M384.8 478.57h10.4v3.54h-10.4z" class="I"/><path d="M391.98 385.1h-1.65c22.5.95 43.2 21.1 43.2 45.8s-20.7 44.87-43.2 45.8h1.65c23.13 0 44.85-20.53 44.85-45.85s-21.7-45.77-44.85-45.77z" class="B"/><path d="M347.8 431.1c0-25 23-45.26 45.84-45.84h-1c-23.13 0-46.83 20.53-46.83 45.85s23.7 45.9 46.84 45.9h1c-22.82-.63-45.85-20.93-45.85-45.9z" class="B C"/><path d="M375.54 470.52h29.9v9.5h-29.9z" class="I"/><path d="M375.54 388.6s-35.52 39.54 0 85h11.73s-32.38-37.58-1.5-87.84L380 387zm30.9-.6s35.52 40.14 0 85.63H394.7s32.38-37.9 1.5-88.17l5.78 1.13z" class="B C"/><path transform="translate(-10.88 -19)" d="M316 116.35c0 19.7-16.47 35.7-34 35.7s-35.5-16-35.5-35.7 18-35.7 35.5-35.7 34 15.98 34 35.7z" fill="url(#N)"/><path d="M303.5 97.35c0 18.8-15.7 34-32.4 34s-33.84-15.23-33.84-34 17.13-34 33.84-34 32.4 15.2 32.4 34z" class="I"/><path fill="url(#O)" d="M259.34 149.53h21.25v18.36h-21.25z"/><path d="M259.97 149.53h20.13v17.4h-20.13z" class="K"/><path d="M279.86 149.53l.84-15.9m-20.23 15.9l-1.14-15.9" class="E F G H"/><path d="M264.73 151a1.17 1.17 0 0 0 0 .38.54.54 0 0 0 0 .14.79.79 0 0 0 0-.52zm-.48-1.7a2.31 2.31 0 0 0 0 .63 2.36 2.36 0 0 0 0-.63zm3.65.9v-.2.2z" class="B C"/><path d="M265.9 132.56h7.52v2.63h-7.52z" class="I"/><path d="M271.12 63.2h-1.2c16.26.7 31.2 15.65 31.2 34s-15 33.3-31.2 34h1.2c16.7 0 32.4-15.23 32.4-34s-15.73-34-32.4-34z" class="B"/><path d="M239.12 97.35c0-18.52 16.64-33.58 33.12-34h-.72c-16.7 0-33.84 15.23-33.84 34s17.13 34 33.84 34h.72c-16.44-.42-33.12-15.48-33.12-34z" class="B C"/><path d="M259.2 126.6h21.6v7.04h-21.6z" class="I"/><path d="M259.2 65.8s-25.66 29.33 0 63.08h8.47s-23.4-27.9-1.07-65.2l-4.18 1zm22.32-.45s25.66 29.78 0 63.53h-8.47s23.4-28.12 1.07-65.4l4.18.84z" class="B C"/><path transform="translate(-10.88 -19)" d="M60 71.82C60 85.74 48.34 97 36 97S10.88 85.74 10.88 71.82 23.57 46.6 36 46.6s24 11.28 24 25.2z" fill="url(#P)"/><path d="M47.94 52.82c0 13.27-11.1 24-22.9 24S1.12 66.1 1.12 52.82s12.1-24 23.9-24 22.92 10.73 22.92 24z" class="D"/><path fill="url(#Q)" d="M16.75 89.68h15v12.96h-15z"/><path d="M17.2 89.68h14.22v12.3H17.2z" class="D"/><path d="M31.24 89.68l.6-11.24M17.55 89.68l-.8-11.24" class="E F G H"/><use xlink:href="#d" class="B C"/><path d="M21.38 77.7h5.3v1.85h-5.3z" class="D"/><use xlink:href="#e" class="B"/><use xlink:href="#f" class="B C"/><path d="M16.66 73.47h15.26v4.97H16.66z" class="D"/><path d="M16.66 30.54s-18.13 20.72 0 44.56h6S6.12 55.38 21.9 29l-3 .67zm15.76-.32s18.13 21 0 44.87h-6s16.52-19.86.76-46.2l3 .6z" class="B C"/><path transform="translate(-10.88 -19)" d="M477 58.82C477 72.74 465.34 84 453 84s-25.07-11.3-25.07-25.2S440.57 33.6 453 33.6s24 11.28 24 25.2z" fill="url(#R)"/><path d="M464.94 39.82c0 13.27-11.1 24-22.9 24s-23.93-10.73-23.93-24 12.1-24 23.9-24 22.92 10.73 22.92 24z" class="J"/><path fill="url(#S)" d="M433.75 76.68h15v12.96h-15z"/><path d="M434.2 76.68h14.22v12.3H434.2z" class="K"/><path d="M448.24 76.68l.6-11.24m-14.3 11.24l-.8-11.24" class="E F G H"/><use xlink:href="#d" x="417" y="-13" class="B C"/><path d="M438.38 64.7h5.3v1.85h-5.3z" class="J"/><use xlink:href="#e" x="417" y="-13" class="B"/><use xlink:href="#f" x="417" y="-13" class="B C"/><path d="M433.66 60.47h15.26v4.97h-15.26z" class="J"/><path d="M433.66 17.54s-18.13 20.72 0 44.56h6s-16.54-19.72-.77-46.1l-3 .67zm15.76-.32s18.13 21 0 44.87h-6s16.52-19.86.76-46.2l3 .6z" class="B C"/><path transform="translate(-10.88 -19)" d="M139.25 250.2c0 20.66-17.26 37.4-35.64 37.4S66.4 270.85 66.4 250.2s18.84-37.4 37.22-37.4 35.64 16.75 35.64 37.4z" fill="url(#T)"/><use xlink:href="#g" class="J"/><path fill="url(#U)" d="M80.38 285.9h22.27v19.24H80.38z"/><path d="M81.04 285.9h21.1v18.24h-21.1z" class="K"/><path d="M101.88 285.9l.88-16.67m-21.2 16.67l-1.2-16.67" class="E F G H"/><path d="M86.02 287.47a1.23 1.23 0 0 0 0 .4.57.57 0 0 0 0 .14.83.83 0 0 0 0-.54zm-.5-1.83a2.42 2.42 0 0 0 0 .66 2.48 2.48 0 0 0 0-.66zm3.82.96v-.2.2z" class="B C"/><path d="M87.25 268.1h7.88v2.75h-7.88z" class="J"/><path d="M92.7 195.4h-1.25c17 .74 32.72 16.4 32.72 35.63S108.48 266 91.44 266.7h1.25c17.52 0 34-16 34-35.66s-16.48-35.64-34-35.64z" class="B"/><use xlink:href="#h" class="B C"/><path d="M80.24 261.85h22.65v7.38H80.24z" class="J"/><path d="M80.24 198.12s-26.9 30.75 0 66.13h8.88S64.6 235 88 195.9l-4.38 1zm23.4-.46s26.9 31.22 0 66.6h-8.88s24.53-29.48 1.13-68.57l4.38.88z" class="B C"/><path transform="translate(-10.88 -19)" d="M1034.1 54.25c0 19.47-16.26 35.25-33.58 35.25s-35.06-15.8-35.06-35.25S983.2 19 1000.52 19s33.58 15.78 33.58 35.25z" fill="url(#V)"/><path d="M1021.62 35.25c0 18.55-15.5 33.6-32 33.6s-33.42-15-33.42-33.6 16.92-33.6 33.42-33.6 32 15.04 32 33.6z" class="M"/><path fill="url(#W)" d="M978.05 86.8h20.98v18.13h-20.98z"/><path d="M978.67 86.8h19.9v17.2h-19.9z" class="K"/><path d="M998.3 86.8l.83-15.7m-19.98 15.7l-1.12-15.7" class="E F G H"/><path d="M983.37 88.27a1.16 1.16 0 0 0 0 .38.54.54 0 0 0 0 .13.78.78 0 0 0 0-.51zm-.48-1.72a2.28 2.28 0 0 0 0 .62 2.33 2.33 0 0 0 0-.62zm3.6.9v-.2.2z" class="B C"/><path fill="#ffcc80" d="M984.52 70.02h7.43v2.6h-7.43z"/><path d="M989.62 1.53h-1.18c16.06.7 30.83 15.46 30.83 33.57S1004.5 68 988.44 68.7h1.18c16.5 0 32-15 32-33.6s-15.53-33.57-32-33.57z" class="B"/><path d="M958.12 35.25c0-18.3 16.44-33.17 32.7-33.6h-.7c-16.5 0-33.42 15-33.42 33.6s16.92 33.6 33.42 33.6h.7c-16.28-.45-32.7-15.32-32.7-33.6z" class="B C"/><path fill="#ffcc80" d="M977.92 64.13h21.34v6.96h-21.34z"/><path d="M977.92 4.1s-25.34 29 0 62.3h8.37s-23.1-27.57-1.07-64.4l-4.13.94zm22-.45s25.34 29.4 0 62.74h-8.37s23.1-27.77 1.06-64.6l4.13.83z" class="B C"/><path transform="translate(-10.88 -19)" d="M1173.2 61.2c0 20.66-17.26 37.4-35.64 37.4s-37.22-16.75-37.22-37.4 18.84-37.4 37.22-37.4 35.64 16.75 35.64 37.4z" fill="url(#X)"/><use xlink:href="#g" x="1033.96" y="-189" class="D"/><path fill="url(#Y)" d="M1114.4 96.9h22.27v19.24h-22.27z"/><path d="M1115 96.9h21.1v18.24H1115z" class="D"/><path d="M1135.9 96.9l.9-16.67m-21.2 16.67l-1.2-16.67" class="E F G H"/><path d="M1120.02 98.47a1.23 1.23 0 0 0 0 .4.57.57 0 0 0 0 .14.83.83 0 0 0 0-.54zm-.5-1.83a2.42 2.42 0 0 0 0 .66 2.48 2.48 0 0 0 0-.66zm3.8.96v-.2.2z" class="B C"/><path d="M1121.2 79.1h7.88v2.75h-7.88z" class="D"/><path d="M1126.72 6.4h-1.25c17 .74 32.72 16.4 32.72 35.63S1142.5 77 1125.47 77.7h1.25c17.52 0 34-16 34-35.66s-16.48-35.64-34-35.64z" class="B"/><use xlink:href="#h" x="1034" y="-189" class="B C"/><path d="M1114.2 72.85h22.65v7.38h-22.65z" class="D"/><path d="M1114.22 9.12s-26.9 30.75 0 66.13h8.88S1098.58 46 1121.98 6.9l-4.38 1zm23.4-.46s26.9 31.22 0 66.6h-8.88s24.53-29.48 1.13-68.57l4.38.88z" class="B C"/><path transform="translate(-10.88 -19)" d="M1104.2 252.32c0 18.4-15.8 33.32-32.6 33.32s-34-14.92-34-33.32 17.23-33.32 34-33.32 32.6 14.92 32.6 33.32z" fill="url(#Z)"/><path d="M1091.72 233.32c0 17.54-15 31.76-31.07 31.76s-32.44-14.22-32.44-31.76 16.42-31.76 32.44-31.76 31.07 14.22 31.07 31.76z" class="J"/><path fill="url(#a)" d="M1049.4 282.05h20.37v17.14h-20.37z"/><path d="M1050 282.05h19.3v16.25H1050z" class="K"/><path d="M1069.1 282.05l.8-14.85m-19.4 14.85l-1.1-14.85" class="E F G H"/><path d="M1054.62 283.45a1.07 1.07 0 0 0 0 .36.5.5 0 0 0 0 .13.72.72 0 0 0 0-.49zm-.5-1.63a2.1 2.1 0 0 0 0 .59 2.15 2.15 0 0 0 0-.59zm3.5.86v-.2.2z" class="B C"/><path d="M1055.7 266.2h7.2v2.45h-7.2z" class="J"/><path d="M1060.72 201.45h-1.15c15.6.66 29.92 14.6 29.92 31.74s-14.34 31.08-29.92 31.74h1.15c16 0 31.07-14.22 31.07-31.76s-15.05-31.72-31.07-31.72z" class="B"/><path d="M1030.02 233.32c0-17.3 16-31.35 31.75-31.75h-.7c-16 0-32.44 14.22-32.44 31.76s16.44 31.76 32.44 31.76h.7c-15.8-.4-31.75-14.48-31.75-31.77z" class="B C"/><path d="M1049.3 260.63h20.7v6.58h-20.7z" class="J"/><path d="M1049.32 203.87s-24.6 27.4 0 58.9h8.12s-22.43-26-1-60.85l-4 .9zm21.4-.42s24.6 27.8 0 59.32h-8.12s22.43-26.26 1-61.07l4 .78z" class="B C"/><path transform="translate(-10.88 -19)" d="M1176.1 455.8c0 20.33-17 36.8-35.06 36.8s-36.6-16.48-36.6-36.8S1122.96 419 1141 419s35.1 16.48 35.1 36.8z" fill="url(#b)"/><path d="M1163.52 436.8c0 19.37-16.2 35.08-33.42 35.08s-34.9-15.7-34.9-35.08 17.66-35.08 34.9-35.08 33.42 15.7 33.42 35.08z" class="I"/><path fill="url(#c)" d="M1118 490.62h21.9v18.93H1118z"/><path d="M1118.6 490.62h20.76v17.94h-20.76z" class="K"/><path d="M1139.2 490.62l.8-16.4m-20.8 16.4l-1.2-16.4" class="E F G H"/><path d="M1123.52 492.17a1.21 1.21 0 0 0 0 .39.56.56 0 0 0 0 .14.81.81 0 0 0 0-.53zm-.5-1.8a2.38 2.38 0 0 0 0 .65 2.44 2.44 0 0 0 0-.65zm3.8.94v-.2.2z" class="B C"/><path d="M1124.8 473.12h7.75v2.7h-7.75z" class="I"/><path d="M1130.12 401.6h-1.23c16.77.72 32.2 16.14 32.2 35.05s-15.42 34.33-32.2 35.05h1.23c17.23 0 33.42-15.7 33.42-35.08s-16.2-35.02-33.42-35.02z" class="B"/><path d="M1097.22 436.8c0-19.1 17.16-34.63 34.16-35.07h-.74c-17.23 0-34.9 15.7-34.9 35.08s17.66 35.08 34.9 35.08h.74c-17-.45-34.16-16-34.16-35.1z" class="B C"/><path d="M1117.9 466.96h22.28v7.26h-22.28z" class="I"/><path d="M1117.82 404.28s-26.46 30.25 0 65.05h8.74s-24.13-28.75-1.1-67.2l-4.3 1zm23.1-.46s26.46 30.7 0 65.52h-8.74s24.13-29 1.1-67.45l4.3.86z" class="B C"/></svg>